<svg width="68" height="68" viewBox="0 0 68 68" fill="none" xmlns="http://www.w3.org/2000/svg">
<circle cx="34" cy="34" r="33.5" stroke="#FCB6C0"/>
<circle cx="34" cy="34" r="31" fill="#FEE7EA"/>
<path d="M24.784 43.36C23.064 43.36 21.604 42.98 20.404 42.22C19.204 41.46 18.288 40.404 17.656 39.052C17.032 37.7 16.72 36.136 16.72 34.36C16.72 32.584 17.032 31.02 17.656 29.668C18.288 28.316 19.204 27.26 20.404 26.5C21.604 25.74 23.064 25.36 24.784 25.36C26.784 25.36 28.428 25.868 29.716 26.884C31.012 27.9 31.904 29.268 32.392 30.988L30.22 31.564C29.868 30.276 29.24 29.26 28.336 28.516C27.432 27.772 26.248 27.4 24.784 27.4C23.496 27.4 22.424 27.692 21.568 28.276C20.712 28.86 20.068 29.676 19.636 30.724C19.204 31.764 18.984 32.976 18.976 34.36C18.968 35.736 19.18 36.948 19.612 37.996C20.044 39.036 20.692 39.852 21.556 40.444C22.42 41.028 23.496 41.32 24.784 41.32C26.248 41.32 27.432 40.948 28.336 40.204C29.24 39.452 29.868 38.436 30.22 37.156L32.392 37.732C31.904 39.444 31.012 40.812 29.716 41.836C28.428 42.852 26.784 43.36 24.784 43.36ZM34.5238 43V25.72H36.6838L45.6958 39.22V25.72H47.8558V43H45.6958L36.6838 29.488V43H34.5238Z" fill="#1CC578"/>
</svg>
